<mxfile host="app.diagrams.net" modified="2020-09-29T05:12:31.777Z" agent="5.0 (Windows NT 10.0; Win64; x64) AppleWebKit/537.36 (KHTML, like Gecko) Chrome/85.0.4183.121 Safari/537.36" etag="2J2P0hNSnfi7hqWN1FM5" version="13.7.6" type="github">
  <diagram id="EWSqnJioqDDeJ6R7m2_B" name="Data Flow">
    <mxGraphModel dx="900" dy="685" grid="1" gridSize="10" guides="1" tooltips="1" connect="1" arrows="1" fold="1" page="1" pageScale="1" pageWidth="850" pageHeight="1100" math="0" shadow="0">
      <root>
        <mxCell id="0" />
        <mxCell id="1" parent="0" />
        <mxCell id="O3FAnGdFtzIONOLhY2R--17" style="edgeStyle=orthogonalEdgeStyle;orthogonalLoop=1;jettySize=auto;html=1;exitX=0.5;exitY=1;exitDx=0;exitDy=0;entryX=0.5;entryY=0;entryDx=0;entryDy=0;sketch=1;fontFamily=Verdana;" parent="1" source="O3FAnGdFtzIONOLhY2R--1" target="O3FAnGdFtzIONOLhY2R--2" edge="1">
          <mxGeometry relative="1" as="geometry" />
        </mxCell>
        <mxCell id="O3FAnGdFtzIONOLhY2R--18" style="edgeStyle=orthogonalEdgeStyle;orthogonalLoop=1;jettySize=auto;html=1;exitX=0.75;exitY=1;exitDx=0;exitDy=0;sketch=1;fontFamily=Verdana;" parent="1" source="O3FAnGdFtzIONOLhY2R--1" target="O3FAnGdFtzIONOLhY2R--4" edge="1">
          <mxGeometry relative="1" as="geometry" />
        </mxCell>
        <mxCell id="O3FAnGdFtzIONOLhY2R--19" style="edgeStyle=orthogonalEdgeStyle;orthogonalLoop=1;jettySize=auto;html=1;exitX=1;exitY=0.75;exitDx=0;exitDy=0;entryX=0.5;entryY=0;entryDx=0;entryDy=0;sketch=1;fontFamily=Verdana;" parent="1" source="O3FAnGdFtzIONOLhY2R--1" target="O3FAnGdFtzIONOLhY2R--5" edge="1">
          <mxGeometry relative="1" as="geometry" />
        </mxCell>
        <mxCell id="O3FAnGdFtzIONOLhY2R--1" value="Landing / Context" style="whiteSpace=wrap;html=1;sketch=1;fontFamily=Verdana;fillColor=#f8cecc;strokeColor=#b85450;" parent="1" vertex="1">
          <mxGeometry x="170" y="70" width="120" height="60" as="geometry" />
        </mxCell>
        <mxCell id="O3FAnGdFtzIONOLhY2R--28" style="edgeStyle=orthogonalEdgeStyle;orthogonalLoop=1;jettySize=auto;html=1;exitX=1;exitY=0.5;exitDx=0;exitDy=0;entryX=1;entryY=0.5;entryDx=0;entryDy=0;sketch=1;fontFamily=Verdana;" parent="1" source="O3FAnGdFtzIONOLhY2R--2" target="O3FAnGdFtzIONOLhY2R--11" edge="1">
          <mxGeometry relative="1" as="geometry" />
        </mxCell>
        <mxCell id="O3FAnGdFtzIONOLhY2R--29" style="edgeStyle=orthogonalEdgeStyle;orthogonalLoop=1;jettySize=auto;html=1;exitX=1;exitY=0.5;exitDx=0;exitDy=0;entryX=1;entryY=0.5;entryDx=0;entryDy=0;sketch=1;fontFamily=Verdana;" parent="1" source="O3FAnGdFtzIONOLhY2R--2" target="O3FAnGdFtzIONOLhY2R--12" edge="1">
          <mxGeometry relative="1" as="geometry" />
        </mxCell>
        <mxCell id="O3FAnGdFtzIONOLhY2R--30" style="edgeStyle=orthogonalEdgeStyle;orthogonalLoop=1;jettySize=auto;html=1;exitX=1;exitY=0.5;exitDx=0;exitDy=0;entryX=1;entryY=0.5;entryDx=0;entryDy=0;sketch=1;fontFamily=Verdana;" parent="1" source="O3FAnGdFtzIONOLhY2R--2" target="O3FAnGdFtzIONOLhY2R--13" edge="1">
          <mxGeometry relative="1" as="geometry" />
        </mxCell>
        <mxCell id="O3FAnGdFtzIONOLhY2R--2" value="Invest" style="whiteSpace=wrap;html=1;sketch=1;fontFamily=Verdana;fillColor=#d5e8d4;strokeColor=#82b366;" parent="1" vertex="1">
          <mxGeometry x="170" y="210" width="120" height="60" as="geometry" />
        </mxCell>
        <mxCell id="O3FAnGdFtzIONOLhY2R--31" value="existing profile" style="edgeStyle=orthogonalEdgeStyle;orthogonalLoop=1;jettySize=auto;html=1;exitX=0;exitY=0.5;exitDx=0;exitDy=0;entryX=0.5;entryY=0;entryDx=0;entryDy=0;sketch=1;fontFamily=Verdana;" parent="1" source="O3FAnGdFtzIONOLhY2R--3" target="O3FAnGdFtzIONOLhY2R--1" edge="1">
          <mxGeometry relative="1" as="geometry">
            <Array as="points">
              <mxPoint x="230" y="40" />
            </Array>
          </mxGeometry>
        </mxCell>
        <mxCell id="O3FAnGdFtzIONOLhY2R--3" value="Customer Search" style="whiteSpace=wrap;html=1;sketch=1;fontFamily=Verdana;" parent="1" vertex="1">
          <mxGeometry x="390" y="10" width="120" height="60" as="geometry" />
        </mxCell>
        <mxCell id="O3FAnGdFtzIONOLhY2R--32" style="edgeStyle=orthogonalEdgeStyle;orthogonalLoop=1;jettySize=auto;html=1;exitX=0;exitY=0.5;exitDx=0;exitDy=0;entryX=0;entryY=0.5;entryDx=0;entryDy=0;sketch=1;fontFamily=Verdana;" parent="1" source="O3FAnGdFtzIONOLhY2R--4" target="O3FAnGdFtzIONOLhY2R--8" edge="1">
          <mxGeometry relative="1" as="geometry" />
        </mxCell>
        <mxCell id="O3FAnGdFtzIONOLhY2R--33" style="edgeStyle=orthogonalEdgeStyle;orthogonalLoop=1;jettySize=auto;html=1;exitX=0;exitY=0.5;exitDx=0;exitDy=0;entryX=0;entryY=0.5;entryDx=0;entryDy=0;sketch=1;fontFamily=Verdana;" parent="1" source="O3FAnGdFtzIONOLhY2R--4" target="O3FAnGdFtzIONOLhY2R--9" edge="1">
          <mxGeometry relative="1" as="geometry" />
        </mxCell>
        <mxCell id="O3FAnGdFtzIONOLhY2R--34" style="edgeStyle=orthogonalEdgeStyle;orthogonalLoop=1;jettySize=auto;html=1;exitX=0;exitY=0.5;exitDx=0;exitDy=0;entryX=0;entryY=0.5;entryDx=0;entryDy=0;sketch=1;fontFamily=Verdana;" parent="1" source="O3FAnGdFtzIONOLhY2R--4" target="O3FAnGdFtzIONOLhY2R--10" edge="1">
          <mxGeometry relative="1" as="geometry" />
        </mxCell>
        <mxCell id="O3FAnGdFtzIONOLhY2R--4" value="Protect" style="whiteSpace=wrap;html=1;sketch=1;fontFamily=Verdana;fillColor=#d5e8d4;strokeColor=#82b366;" parent="1" vertex="1">
          <mxGeometry x="380" y="210" width="120" height="60" as="geometry" />
        </mxCell>
        <mxCell id="O3FAnGdFtzIONOLhY2R--22" style="edgeStyle=orthogonalEdgeStyle;orthogonalLoop=1;jettySize=auto;html=1;exitX=1;exitY=0.25;exitDx=0;exitDy=0;entryX=0;entryY=0.25;entryDx=0;entryDy=0;sketch=1;fontFamily=Verdana;" parent="1" source="O3FAnGdFtzIONOLhY2R--5" target="O3FAnGdFtzIONOLhY2R--7" edge="1">
          <mxGeometry relative="1" as="geometry" />
        </mxCell>
        <mxCell id="O3FAnGdFtzIONOLhY2R--36" value="asking for detail" style="edgeStyle=orthogonalEdgeStyle;orthogonalLoop=1;jettySize=auto;html=1;exitX=0.5;exitY=1;exitDx=0;exitDy=0;sketch=1;fontFamily=Verdana;" parent="1" source="O3FAnGdFtzIONOLhY2R--5" target="O3FAnGdFtzIONOLhY2R--6" edge="1">
          <mxGeometry relative="1" as="geometry" />
        </mxCell>
        <mxCell id="O3FAnGdFtzIONOLhY2R--37" value="asking for detail" style="edgeStyle=orthogonalEdgeStyle;orthogonalLoop=1;jettySize=auto;html=1;exitX=1;exitY=0.75;exitDx=0;exitDy=0;entryX=1;entryY=0.5;entryDx=0;entryDy=0;sketch=1;fontFamily=Verdana;" parent="1" source="O3FAnGdFtzIONOLhY2R--5" target="O3FAnGdFtzIONOLhY2R--35" edge="1">
          <mxGeometry x="0.2911" relative="1" as="geometry">
            <Array as="points">
              <mxPoint x="700" y="255" />
              <mxPoint x="700" y="640" />
            </Array>
            <mxPoint as="offset" />
          </mxGeometry>
        </mxCell>
        <mxCell id="RtNHBDS2QIgpiVo3VP4l-9" style="edgeStyle=orthogonalEdgeStyle;rounded=0;sketch=1;orthogonalLoop=1;jettySize=auto;html=1;exitX=0.75;exitY=0;exitDx=0;exitDy=0;entryX=0.5;entryY=1;entryDx=0;entryDy=0;strokeColor=#000000;fillColor=#FFCCCC;fontFamily=Verdana;" edge="1" parent="1" source="O3FAnGdFtzIONOLhY2R--5" target="RtNHBDS2QIgpiVo3VP4l-8">
          <mxGeometry relative="1" as="geometry" />
        </mxCell>
        <mxCell id="RtNHBDS2QIgpiVo3VP4l-11" style="edgeStyle=orthogonalEdgeStyle;rounded=0;sketch=1;orthogonalLoop=1;jettySize=auto;html=1;exitX=1;exitY=0;exitDx=0;exitDy=0;entryX=0.5;entryY=1;entryDx=0;entryDy=0;strokeColor=#000000;fillColor=#FFCCCC;fontFamily=Verdana;" edge="1" parent="1" source="O3FAnGdFtzIONOLhY2R--5" target="RtNHBDS2QIgpiVo3VP4l-10">
          <mxGeometry relative="1" as="geometry" />
        </mxCell>
        <mxCell id="O3FAnGdFtzIONOLhY2R--5" value="LifeStage" style="whiteSpace=wrap;html=1;sketch=1;fontFamily=Verdana;fillColor=#d5e8d4;strokeColor=#82b366;" parent="1" vertex="1">
          <mxGeometry x="530" y="210" width="130" height="60" as="geometry" />
        </mxCell>
        <mxCell id="O3FAnGdFtzIONOLhY2R--39" style="edgeStyle=orthogonalEdgeStyle;orthogonalLoop=1;jettySize=auto;html=1;exitX=0.25;exitY=1;exitDx=0;exitDy=0;entryX=1;entryY=0.75;entryDx=0;entryDy=0;strokeColor=#FF9999;sketch=1;fontFamily=Verdana;" parent="1" source="O3FAnGdFtzIONOLhY2R--6" target="O3FAnGdFtzIONOLhY2R--11" edge="1">
          <mxGeometry relative="1" as="geometry">
            <Array as="points">
              <mxPoint x="580" y="390" />
              <mxPoint x="580" y="410" />
              <mxPoint x="350" y="410" />
              <mxPoint x="350" y="345" />
            </Array>
          </mxGeometry>
        </mxCell>
        <mxCell id="O3FAnGdFtzIONOLhY2R--40" value="kid age" style="edgeLabel;html=1;align=center;verticalAlign=middle;resizable=0;points=[];sketch=1;fontFamily=Verdana;" parent="O3FAnGdFtzIONOLhY2R--39" vertex="1" connectable="0">
          <mxGeometry x="0.0851" relative="1" as="geometry">
            <mxPoint as="offset" />
          </mxGeometry>
        </mxCell>
        <mxCell id="O3FAnGdFtzIONOLhY2R--6" value="Kids&#39; info" style="whiteSpace=wrap;html=1;sketch=1;fontFamily=Verdana;" parent="1" vertex="1">
          <mxGeometry x="535" y="330" width="120" height="60" as="geometry" />
        </mxCell>
        <mxCell id="RtNHBDS2QIgpiVo3VP4l-1" style="edgeStyle=orthogonalEdgeStyle;orthogonalLoop=1;jettySize=auto;html=1;exitX=0.5;exitY=1;exitDx=0;exitDy=0;fillColor=#FFCCCC;strokeColor=#FFCCCC;sketch=1;fontFamily=Verdana;entryX=1.025;entryY=0.65;entryDx=0;entryDy=0;entryPerimeter=0;" edge="1" parent="1" source="O3FAnGdFtzIONOLhY2R--7" target="O3FAnGdFtzIONOLhY2R--10">
          <mxGeometry relative="1" as="geometry">
            <mxPoint x="570" y="540" as="targetPoint" />
            <Array as="points">
              <mxPoint x="770" y="470" />
              <mxPoint x="610" y="470" />
              <mxPoint x="610" y="469" />
            </Array>
          </mxGeometry>
        </mxCell>
        <mxCell id="RtNHBDS2QIgpiVo3VP4l-3" value="map to protection type" style="edgeLabel;html=1;align=center;verticalAlign=middle;resizable=0;points=[];sketch=1;fontFamily=Verdana;" vertex="1" connectable="0" parent="RtNHBDS2QIgpiVo3VP4l-1">
          <mxGeometry x="-0.0327" y="-2" relative="1" as="geometry">
            <mxPoint as="offset" />
          </mxGeometry>
        </mxCell>
        <mxCell id="O3FAnGdFtzIONOLhY2R--7" value="Concerns" style="whiteSpace=wrap;html=1;sketch=1;fontFamily=Verdana;" parent="1" vertex="1">
          <mxGeometry x="710" y="210" width="120" height="60" as="geometry" />
        </mxCell>
        <mxCell id="RtNHBDS2QIgpiVo3VP4l-15" style="edgeStyle=orthogonalEdgeStyle;rounded=0;sketch=1;orthogonalLoop=1;jettySize=auto;html=1;exitX=0.5;exitY=1;exitDx=0;exitDy=0;entryX=0.5;entryY=0;entryDx=0;entryDy=0;strokeColor=#000000;fillColor=#FFCCCC;fontFamily=Verdana;" edge="1" parent="1" source="O3FAnGdFtzIONOLhY2R--8" target="RtNHBDS2QIgpiVo3VP4l-12">
          <mxGeometry relative="1" as="geometry" />
        </mxCell>
        <mxCell id="RtNHBDS2QIgpiVo3VP4l-16" style="edgeStyle=orthogonalEdgeStyle;rounded=0;sketch=1;orthogonalLoop=1;jettySize=auto;html=1;exitX=0.5;exitY=1;exitDx=0;exitDy=0;strokeColor=#000000;fillColor=#FFCCCC;fontFamily=Verdana;" edge="1" parent="1" source="O3FAnGdFtzIONOLhY2R--8" target="RtNHBDS2QIgpiVo3VP4l-13">
          <mxGeometry relative="1" as="geometry" />
        </mxCell>
        <mxCell id="RtNHBDS2QIgpiVo3VP4l-18" style="edgeStyle=orthogonalEdgeStyle;rounded=0;sketch=1;orthogonalLoop=1;jettySize=auto;html=1;exitX=0.5;exitY=1;exitDx=0;exitDy=0;entryX=0.5;entryY=0;entryDx=0;entryDy=0;strokeColor=#000000;fillColor=#FFCCCC;fontFamily=Verdana;" edge="1" parent="1" source="O3FAnGdFtzIONOLhY2R--8" target="RtNHBDS2QIgpiVo3VP4l-17">
          <mxGeometry relative="1" as="geometry" />
        </mxCell>
        <mxCell id="RtNHBDS2QIgpiVo3VP4l-20" style="edgeStyle=orthogonalEdgeStyle;rounded=0;sketch=1;orthogonalLoop=1;jettySize=auto;html=1;exitX=0.5;exitY=1;exitDx=0;exitDy=0;entryX=0.5;entryY=0;entryDx=0;entryDy=0;strokeColor=#000000;fillColor=#FFCCCC;fontFamily=Verdana;" edge="1" parent="1" source="O3FAnGdFtzIONOLhY2R--8" target="RtNHBDS2QIgpiVo3VP4l-19">
          <mxGeometry relative="1" as="geometry" />
        </mxCell>
        <mxCell id="O3FAnGdFtzIONOLhY2R--8" value="current situation&amp;nbsp;" style="whiteSpace=wrap;html=1;sketch=1;fontFamily=Verdana;" parent="1" vertex="1">
          <mxGeometry x="410" y="720" width="120" height="60" as="geometry" />
        </mxCell>
        <mxCell id="O3FAnGdFtzIONOLhY2R--9" value="Life Protection" style="whiteSpace=wrap;html=1;sketch=1;fontFamily=Verdana;" parent="1" vertex="1">
          <mxGeometry x="400" y="330" width="120" height="60" as="geometry" />
        </mxCell>
        <mxCell id="O3FAnGdFtzIONOLhY2R--10" value="Other Protections" style="whiteSpace=wrap;html=1;sketch=1;fontFamily=Verdana;" parent="1" vertex="1">
          <mxGeometry x="410" y="430" width="120" height="60" as="geometry" />
        </mxCell>
        <mxCell id="O3FAnGdFtzIONOLhY2R--11" value="Kid Education&amp;nbsp;" style="whiteSpace=wrap;html=1;sketch=1;fontFamily=Verdana;" parent="1" vertex="1">
          <mxGeometry x="170" y="300" width="120" height="60" as="geometry" />
        </mxCell>
        <mxCell id="O3FAnGdFtzIONOLhY2R--12" value="Retirement&amp;nbsp;" style="whiteSpace=wrap;html=1;sketch=1;fontFamily=Verdana;" parent="1" vertex="1">
          <mxGeometry x="170" y="390" width="120" height="60" as="geometry" />
        </mxCell>
        <mxCell id="O3FAnGdFtzIONOLhY2R--13" value="Other Goal" style="whiteSpace=wrap;html=1;sketch=1;fontFamily=Verdana;" parent="1" vertex="1">
          <mxGeometry x="170" y="480" width="120" height="60" as="geometry" />
        </mxCell>
        <mxCell id="O3FAnGdFtzIONOLhY2R--24" style="edgeStyle=orthogonalEdgeStyle;orthogonalLoop=1;jettySize=auto;html=1;exitX=1;exitY=0.5;exitDx=0;exitDy=0;entryX=0;entryY=0.5;entryDx=0;entryDy=0;sketch=1;fontFamily=Verdana;" parent="1" source="O3FAnGdFtzIONOLhY2R--15" target="O3FAnGdFtzIONOLhY2R--11" edge="1">
          <mxGeometry relative="1" as="geometry" />
        </mxCell>
        <mxCell id="O3FAnGdFtzIONOLhY2R--15" value="Reference school fee&amp;nbsp;" style="whiteSpace=wrap;html=1;sketch=1;fontFamily=Verdana;" parent="1" vertex="1">
          <mxGeometry x="10" y="300" width="120" height="60" as="geometry" />
        </mxCell>
        <mxCell id="O3FAnGdFtzIONOLhY2R--25" style="edgeStyle=orthogonalEdgeStyle;orthogonalLoop=1;jettySize=auto;html=1;exitX=1;exitY=0.5;exitDx=0;exitDy=0;entryX=0;entryY=0.5;entryDx=0;entryDy=0;sketch=1;fontFamily=Verdana;" parent="1" source="O3FAnGdFtzIONOLhY2R--16" target="O3FAnGdFtzIONOLhY2R--12" edge="1">
          <mxGeometry relative="1" as="geometry" />
        </mxCell>
        <mxCell id="O3FAnGdFtzIONOLhY2R--16" value="household spending reference base on lifestyle" style="whiteSpace=wrap;html=1;sketch=1;fontFamily=Verdana;" parent="1" vertex="1">
          <mxGeometry x="10" y="390" width="120" height="60" as="geometry" />
        </mxCell>
        <mxCell id="O3FAnGdFtzIONOLhY2R--38" style="edgeStyle=orthogonalEdgeStyle;orthogonalLoop=1;jettySize=auto;html=1;exitX=0;exitY=0.5;exitDx=0;exitDy=0;entryX=0;entryY=0.75;entryDx=0;entryDy=0;fillColor=#FFCC99;strokeColor=#FFCCCC;sketch=1;fontFamily=Verdana;" parent="1" source="O3FAnGdFtzIONOLhY2R--35" target="O3FAnGdFtzIONOLhY2R--12" edge="1">
          <mxGeometry relative="1" as="geometry" />
        </mxCell>
        <mxCell id="O3FAnGdFtzIONOLhY2R--41" value="target retirement age and retirement plan duration" style="edgeLabel;html=1;align=center;verticalAlign=middle;resizable=0;points=[];sketch=1;fontFamily=Verdana;" parent="O3FAnGdFtzIONOLhY2R--38" vertex="1" connectable="0">
          <mxGeometry x="-0.2557" y="2" relative="1" as="geometry">
            <mxPoint as="offset" />
          </mxGeometry>
        </mxCell>
        <mxCell id="O3FAnGdFtzIONOLhY2R--35" value="Retirement Target and LifePlan" style="whiteSpace=wrap;html=1;sketch=1;fontFamily=Verdana;" parent="1" vertex="1">
          <mxGeometry x="550" y="610" width="120" height="60" as="geometry" />
        </mxCell>
        <mxCell id="RtNHBDS2QIgpiVo3VP4l-6" style="edgeStyle=orthogonalEdgeStyle;orthogonalLoop=1;jettySize=auto;html=1;exitX=1;exitY=0.5;exitDx=0;exitDy=0;strokeColor=#FFCCCC;fillColor=#FFCCCC;sketch=1;fontFamily=Verdana;" edge="1" parent="1" source="RtNHBDS2QIgpiVo3VP4l-5" target="O3FAnGdFtzIONOLhY2R--1">
          <mxGeometry relative="1" as="geometry" />
        </mxCell>
        <mxCell id="RtNHBDS2QIgpiVo3VP4l-5" value="global params: inflation / ROI" style="whiteSpace=wrap;html=1;sketch=1;fontFamily=Verdana;" vertex="1" parent="1">
          <mxGeometry x="10" y="70" width="120" height="60" as="geometry" />
        </mxCell>
        <mxCell id="RtNHBDS2QIgpiVo3VP4l-8" value="other details for record" style="rounded=0;whiteSpace=wrap;html=1;sketch=1;fontFamily=Verdana;" vertex="1" parent="1">
          <mxGeometry x="580" y="20" width="120" height="60" as="geometry" />
        </mxCell>
        <mxCell id="RtNHBDS2QIgpiVo3VP4l-10" value="LifeStage Diagram" style="rounded=0;whiteSpace=wrap;html=1;sketch=1;fontFamily=Verdana;" vertex="1" parent="1">
          <mxGeometry x="710" y="90" width="120" height="60" as="geometry" />
        </mxCell>
        <mxCell id="RtNHBDS2QIgpiVo3VP4l-12" value="existing policy" style="rounded=0;whiteSpace=wrap;html=1;sketch=1;fontFamily=Verdana;" vertex="1" parent="1">
          <mxGeometry x="610" y="820" width="120" height="60" as="geometry" />
        </mxCell>
        <mxCell id="RtNHBDS2QIgpiVo3VP4l-13" value="family expense&amp;nbsp;" style="rounded=0;whiteSpace=wrap;html=1;sketch=1;fontFamily=Verdana;" vertex="1" parent="1">
          <mxGeometry x="410" y="820" width="120" height="60" as="geometry" />
        </mxCell>
        <mxCell id="RtNHBDS2QIgpiVo3VP4l-17" value="current saving / asset&amp;nbsp;" style="rounded=0;whiteSpace=wrap;html=1;sketch=1;fontFamily=Verdana;" vertex="1" parent="1">
          <mxGeometry x="250" y="820" width="120" height="60" as="geometry" />
        </mxCell>
        <mxCell id="RtNHBDS2QIgpiVo3VP4l-19" value="current liability&amp;nbsp;" style="rounded=0;whiteSpace=wrap;html=1;sketch=1;fontFamily=Verdana;" vertex="1" parent="1">
          <mxGeometry x="80" y="820" width="120" height="60" as="geometry" />
        </mxCell>
      </root>
    </mxGraphModel>
  </diagram>
</mxfile>
